<?xml version="1.0" encoding="UTF-8"?>
<svg width="118px" height="46px" viewBox="0 0 118 46" version="1.1" xmlns="http://www.w3.org/2000/svg" xmlns:xlink="http://www.w3.org/1999/xlink">
    <!-- Generator: Sketch 55 (78076) - https://sketchapp.com -->
    <title>Helo!</title>
    <desc>Created with Sketch.</desc>
    <g id="hello-2" stroke="none" stroke-width="1" fill="none" fill-rule="evenodd">
        <path id="Path-10" d="M19.6445312,12.1630859 C18.9121057,15.8903181 18.472657,18.3968035 18.3261719,19.6826172 L17.5693359,26.4453125 L31.1923828,26.4453125 L31.2900391,25.5664062 C32.3479871,16.1099788 34.2197131,9.68100659 36.9052734,6.27929688 C40.1930503,2.11260938 43.8388472,0.029296875 47.8427734,0.029296875 C49.3401768,0.029296875 50.7317644,0.289710938 52.0175781,0.810546875 L48.4042969,4.35058594 C47.0371025,3.42284692 45.6780667,2.95898438 44.3271484,2.95898438 C41.5764836,2.95898438 39.6640679,4.32208923 38.5898438,7.04833984 C37.5156196,9.77459045 36.4495496,15.9472175 35.3916016,25.5664062 L35.0253906,28.8867188 C34.5696592,33.1673391 34.3417969,36.4794805 34.3417969,38.8232422 C34.3417969,40.2067126 34.9358665,40.8984375 36.1240234,40.8984375 C37.0029341,40.8984375 38.093418,40.5240923 39.3955078,39.7753906 C39.4606123,40.0683608 39.4931641,40.2718093 39.4931641,40.3857422 C39.4931641,40.8740259 39.0618533,41.3134746 38.1992188,41.7041016 L36.7832031,42.3632812 L29.6054688,45.6347656 C29.6054688,42.6236829 29.9960898,37.5049189 30.7773437,30.2783203 L30.875,29.3994141 L17.2519531,29.3994141 L17.0078125,31.6210938 L16.6904297,34.3310547 C16.4137356,36.6422642 15.9132523,38.3105417 15.1889648,39.3359375 C14.4646774,40.3613333 13.0771587,41.3622998 11.0263672,42.3388672 L16.7880859,42.7050781 L13.8583984,45.5371094 L3.28710938,45 L6.41210938,41.9726562 L9.07324219,42.265625 C10.3590559,41.4355427 11.2460913,40.3979554 11.734375,39.152832 C12.2226587,37.9077086 12.6458315,35.5924648 13.0039062,32.2070312 L14.8837891,15.1171875 L14.1269531,15.1171875 C7.35608594,15.1171875 3.97070312,17.3551208 3.97070312,21.8310547 C3.97070312,23.2308013 4.35318628,24.6386648 5.11816406,26.0546875 L1.13867188,29.8632813 C0.764321045,28.5937437 0.577148438,27.332363 0.577148438,26.0791016 C0.577148438,21.8798618 2.13963281,18.5107549 5.26464844,15.9716797 C8.38966406,13.4326045 12.5400132,12.1630859 17.7158203,12.1630859 L19.6445312,12.1630859 Z M57.6572266,37.2363281 C58.0641296,37.5130222 58.2675781,37.8385398 58.2675781,38.2128906 C58.2675781,38.7174504 57.74675,39.580072 56.7050781,40.8007812 C53.9218611,44.0234536 51.1712375,45.6347656 48.453125,45.6347656 C46.7929604,45.6347656 45.4257866,44.9755925 44.3515625,43.6572266 C43.2773384,42.3388606 42.7402344,40.6543071 42.7402344,38.6035156 C42.7402344,34.8925596 44.1440289,31.1369005 46.9516602,27.3364258 C49.7592914,23.535951 52.5383977,21.6357422 55.2890625,21.6357422 C57.2747495,21.6357422 58.2675781,22.7018123 58.2675781,24.8339844 C58.2675781,27.2265745 57.1079218,29.5621631 54.7885742,31.8408203 C52.4692267,34.1194775 49.6412927,35.7063757 46.3046875,36.6015625 C46.63021,40.5241082 48.1764185,42.4853516 50.9433594,42.4853516 C53.677748,42.4853516 55.9156814,40.7356946 57.6572266,37.2363281 Z M46.4023438,33.6230469 C46.8743513,33.7858081 47.3056621,33.8671875 47.6962891,33.8671875 C49.7145283,33.8671875 51.4804612,33.2487041 52.9941406,32.0117188 C54.5078201,30.7747334 55.2646484,29.3261802 55.2646484,27.6660156 C55.2646484,25.7617092 54.2962336,24.8095703 52.359375,24.8095703 C50.9596284,24.8095703 49.6941788,25.6437091 48.5629883,27.3120117 C47.4317977,28.9803143 46.7115901,31.0839717 46.4023438,33.6230469 Z M83.8046875,7.62207031 C82.1933513,6.87336865 80.5657634,6.49902344 78.921875,6.49902344 C75.617822,6.49902344 73.2334058,7.36978296 71.7685547,9.11132812 C70.3037036,10.8528733 69.3515647,13.9615662 68.9121094,18.4375 L68.5458984,22.2705078 L66.9101562,36.8945312 C66.7311189,38.4733152 66.6416016,39.6044888 66.6416016,40.2880859 C66.6416016,41.752937 66.8938777,42.4853516 67.3984375,42.4853516 C68.0006541,42.4853516 68.7086548,42.0011442 69.5224609,41.0327148 C70.3362671,40.0642855 70.9303367,38.9941465 71.3046875,37.8222656 C71.7766951,38.0501313 72.0126953,38.3430972 72.0126953,38.7011719 C72.0126953,39.8730527 71.1378668,41.321606 69.3881836,43.046875 C67.6385004,44.772144 66.1696023,45.6347656 64.9814453,45.6347656 C63.6305271,45.6347656 62.9550781,44.6582129 62.9550781,42.7050781 C62.9550781,41.5169211 63.0283196,40.3043682 63.1748047,39.0673828 L63.4433594,36.8945312 L65.0546875,22.2705078 L65.2255859,20.7080078 C65.7464219,15.6624097 67.4675961,11.585302 70.3891602,8.4765625 C73.3107242,5.367823 76.8710728,3.81347656 81.0703125,3.81347656 C83.1048279,3.81347656 84.9521401,4.1715459 86.6123047,4.88769531 C89.297865,2.80435156 91.9915229,1.76269531 94.6933594,1.76269531 C95.6048223,1.76269531 96.3860645,1.83593677 97.0371094,1.98242188 L93.5703125,5.52246094 C92.8216108,5.26204297 91.9264375,5.13183594 90.8847656,5.13183594 C88.4433472,5.13183594 86.6163798,5.99038855 85.4038086,7.70751953 C84.1912374,9.42465051 83.3570986,12.3339639 82.9013672,16.4355469 L80.6308594,36.8945312 C80.451822,38.4733152 80.3623047,39.6207646 80.3623047,40.3369141 C80.3623047,41.7692129 80.6227187,42.4853516 81.1435547,42.4853516 C81.7294951,42.4853516 82.4334269,41.9970752 83.2553711,41.0205078 C84.0773153,40.0439404 84.6673159,38.9778704 85.0253906,37.8222656 C85.4973982,38.0501313 85.7333984,38.3430972 85.7333984,38.7011719 C85.7333984,39.8730527 84.8585699,41.321606 83.1088867,43.046875 C81.3592035,44.772144 79.8903054,45.6347656 78.7021484,45.6347656 C77.3675063,45.6347656 76.7001953,44.641937 76.7001953,42.65625 C76.7001953,41.5006453 76.7652988,40.3043682 76.8955078,39.0673828 L77.1640625,36.8945312 L79.0683594,19.9023438 C79.6054714,14.9869546 81.1842317,10.893571 83.8046875,7.62207031 Z M93.8632812,45.6347656 C90.2011536,45.6347656 88.3701172,43.2096597 88.3701172,38.359375 C88.3701172,34.4531055 89.8023945,30.6893085 92.6669922,27.0678711 C95.5315898,23.4464337 98.5019377,21.6357422 101.578125,21.6357422 C105.289081,21.6357422 107.144531,24.0608481 107.144531,28.9111328 C107.144531,32.8336785 105.712254,36.6015444 102.847656,40.2148438 C99.9830586,43.8281431 96.9882969,45.6347656 93.8632812,45.6347656 Z M96.8173828,42.9003906 C98.689137,42.9003906 100.25569,41.8587344 101.51709,39.7753906 C102.778489,37.6920469 103.40918,35.0960442 103.40918,31.9873047 C103.40918,26.9091543 101.830419,24.3701172 98.6728516,24.3701172 C96.8173735,24.3701172 95.2589581,25.4158424 93.9975586,27.5073242 C92.7361591,29.598806 92.1054688,32.1907397 92.1054688,35.2832031 C92.1054688,40.3613535 93.6760911,42.9003906 96.8173828,42.9003906 Z M116.421875,33.0859375 L113.345703,35.4052734 L113.638672,31.328125 C113.89909,27.8287585 114.029297,24.7607554 114.029297,22.1240234 C114.029297,17.9898882 113.711917,14.6126433 113.077148,11.9921875 L117.520508,10.2832031 C117.715821,11.6992258 117.813477,13.1315032 117.813477,14.5800781 C117.813477,17.5260564 117.610028,20.943991 117.203125,24.8339844 C116.991535,26.901052 116.869466,28.0485015 116.836914,28.2763672 L116.421875,33.0859375 Z M113.467773,45.9521484 C112.735348,44.4059167 111.783209,43.2503293 110.611328,42.4853516 L114.224609,39.0429688 C115.298833,39.8404988 116.234697,40.9879482 117.032227,42.4853516 L113.467773,45.9521484 Z" id="Helo!" fill="#000000" fill-rule="nonzero"></path>
    </g>
</svg>
