<?xml version="1.0" encoding="UTF-8"?>
<svg width="46px" height="45px" viewBox="0 0 46 45" version="1.1" xmlns="http://www.w3.org/2000/svg" xmlns:xlink="http://www.w3.org/1999/xlink">
    <!-- Generator: Sketch 55 (78076) - https://sketchapp.com -->
    <title>waffle-pattern</title>
    <desc>Created with Sketch.</desc>
    <g id="Page-1" stroke="none" stroke-width="1" fill="none" fill-rule="evenodd" stroke-linecap="square">
        <g id="waffle-pattern" transform="translate(0.673225, 0.500000)" stroke="#979797" stroke-width="2">
            <g id="Group-2" transform="translate(4.326775, 0.000000)">
                <path d="M0.909090909,0.5 L0.909090909,43.5" id="Line-2-Copy"></path>
                <path d="M7.90909091,0.5 L7.90909091,43.5" id="Line-2-Copy-2"></path>
                <path d="M14.9090909,0.5 L14.9090909,43.5" id="Line-2-Copy-3"></path>
                <path d="M21.9090909,0.5 L21.9090909,43.5" id="Line-2-Copy-4"></path>
                <path d="M28.9090909,0.5 L28.9090909,43.5" id="Line-2-Copy-5"></path>
                <path d="M35.9090909,0.5 L35.9090909,43.5" id="Line-2-Copy-6"></path>
            </g>
            <g id="Group-2-Copy" transform="translate(22.500000, 22.338056) rotate(-90.000000) translate(-22.500000, -22.338056) translate(4.000000, 0.338056)">
                <path d="M0.909090909,0.5 L0.909090909,43.5" id="Line-2-Copy"></path>
                <path d="M7.90909091,0.5 L7.90909091,43.5" id="Line-2-Copy-2"></path>
                <path d="M14.9090909,0.5 L14.9090909,43.5" id="Line-2-Copy-3"></path>
                <path d="M21.9090909,0.5 L21.9090909,43.5" id="Line-2-Copy-4"></path>
                <path d="M28.9090909,0.5 L28.9090909,43.5" id="Line-2-Copy-5"></path>
                <path d="M35.9090909,0.5 L35.9090909,43.5" id="Line-2-Copy-6"></path>
            </g>
        </g>
    </g>
</svg>