<?xml version="1.0" encoding="UTF-8"?>
<svg width="202px" height="163px" viewBox="0 0 202 163" version="1.1" xmlns="http://www.w3.org/2000/svg" xmlns:xlink="http://www.w3.org/1999/xlink">
    <!-- Generator: Sketch 55 (78076) - https://sketchapp.com -->
    <title>Group 5</title>
    <desc>Created with Sketch.</desc>
    <g id="icons" stroke="none" stroke-width="1" fill="none" fill-rule="evenodd">
        <g id="Path_1" transform="translate(1.000000, 1.000000)">
            <g id="Group-5">
                <path d="M36.7999987,39.8974359 L3.20000008,39.8974359 C2.37264623,39.8974359 1.59481029,39.5752454 1.0097846,38.9902156 C0.424753825,38.4051889 0.102564103,37.6273538 0.102564103,36.7999987 L0.102564103,3.20000008 C0.102564103,2.37264623 0.424753825,1.59481029 1.0097846,1.0097846 C1.59481029,0.424753825 2.37264623,0.102564103 3.20000008,0.102564103 L36.7999987,0.102564103 C37.6273538,0.102564103 38.4051889,0.424753825 38.9902219,1.0097846 C39.5752454,1.59481029 39.8974359,2.37264623 39.8974359,3.20000008 L39.8974359,36.7999987 C39.8974359,37.6273538 39.5752454,38.4051889 38.9902219,38.9902156 C38.4051889,39.5752454 37.6273538,39.8974359 36.7999987,39.8974359 Z" id="Path" stroke="#0091FF" stroke-width="2" fill-rule="nonzero"></path>
                <path d="M3.20000125,0.205128205 C2.40004006,0.205128205 1.64795861,0.516651643 1.08230669,1.08230669 C0.516651643,1.64795861 0.205128205,2.40004006 0.205128205,3.20000125 L0.205128205,36.7999987 C0.205128205,37.5999599 0.516651643,38.3520351 1.08230669,38.9176933 C1.64796487,39.4833484 2.40004006,39.7948718 3.20000125,39.7948718 L36.7999987,39.7948718 C37.5999599,39.7948718 38.3520351,39.4833484 38.9176933,38.9176933 C39.4833484,38.3520351 39.7948718,37.5999599 39.7948718,36.7999987 L39.7948718,3.20000125 C39.7948718,2.40004006 39.4833484,1.64796487 38.9176933,1.08230669 C38.3520351,0.516651643 37.5999599,0.205128205 36.7999987,0.205128205 L3.20000125,0.205128205 L3.20000125,0.205128205 Z M3.20000125,0 L36.7999987,0 C38.5673077,0 40,1.43268605 40,3.20000125 L40,36.7999987 C40,38.5673077 38.5673077,40 36.7999987,40 L3.20000125,40 C1.43268605,40 0,38.5673077 0,36.7999987 L0,3.20000125 C0,1.43268605 1.43268605,0 3.20000125,0 Z" id="Shape" stroke="#0091FF" fill="#FFFFFF" fill-rule="nonzero"></path>
                <path d="M193.799999,39.8974359 L160.2,39.8974359 C159.372646,39.8974359 158.59481,39.5752454 158.009785,38.9902156 C157.424754,38.4051889 157.102564,37.6273538 157.102564,36.7999987 L157.102564,3.20000008 C157.102564,2.37264623 157.424754,1.59481029 158.009785,1.0097846 C158.59481,0.424753825 159.372646,0.102564103 160.2,0.102564103 L193.799999,0.102564103 C194.627354,0.102564103 195.405189,0.424753825 195.990222,1.0097846 C196.575245,1.59481029 196.897436,2.37264623 196.897436,3.20000008 L196.897436,36.7999987 C196.897436,37.6273538 196.575245,38.4051889 195.990222,38.9902156 C195.405189,39.5752454 194.627354,39.8974359 193.799999,39.8974359 Z" id="Path" stroke="#0091FF" stroke-width="2" fill-rule="nonzero"></path>
                <path d="M160.200001,0.205128205 C159.40004,0.205128205 158.647959,0.516651643 158.082307,1.08230669 C157.516652,1.64795861 157.205128,2.40004006 157.205128,3.20000125 L157.205128,36.7999987 C157.205128,37.5999599 157.516652,38.3520351 158.082307,38.9176933 C158.647965,39.4833484 159.40004,39.7948718 160.200001,39.7948718 L193.799999,39.7948718 C194.59996,39.7948718 195.352035,39.4833484 195.917693,38.9176933 C196.483348,38.3520351 196.794872,37.5999599 196.794872,36.7999987 L196.794872,3.20000125 C196.794872,2.40004006 196.483348,1.64796487 195.917693,1.08230669 C195.352035,0.516651643 194.59996,0.205128205 193.799999,0.205128205 L160.200001,0.205128205 L160.200001,0.205128205 Z M160.200001,0 L193.799999,0 C195.567308,0 197,1.43268605 197,3.20000125 L197,36.7999987 C197,38.5673077 195.567308,40 193.799999,40 L160.200001,40 C158.432686,40 157,38.5673077 157,36.7999987 L157,3.20000125 C157,1.43268605 158.432686,0 160.200001,0 Z" id="Shape" fill="#707070" fill-rule="nonzero"></path>
                <path d="M183.170692,17.454964 C186.208258,17.454964 188.670692,14.9925301 188.670692,11.954964 C188.670692,11.4672549 187.473733,12.0900421 186.930486,12.2284335 C186.82617,12.2221218 185.743287,13.0073364 185.018154,13.5017102 C184.72638,13.7006329 184.205553,13.9046123 183.535036,13.9209313 C182.788144,13.939109 182.008876,13.1871507 181.870915,13.0183197 C180.992372,11.9431912 180.814092,10.3079499 182.09452,9.36679435 C183.303148,8.47841452 184.01543,6.454964 183.170692,6.454964 C181.820867,6.454964 180.584614,6.94122358 179.627546,7.74812887 C179.42124,7.92206649 179.227906,8.11090345 179.049204,8.31298091 C178.191363,9.28303177 177.670692,10.5581933 177.670692,11.954964 C177.670692,14.9925301 180.133126,17.454964 183.170692,17.454964 Z" id="Oval" stroke="#0091FF" fill="#0091FF" transform="translate(183.170692, 11.954964) rotate(-2.000000) translate(-183.170692, -11.954964) "></path>
                <path d="M171.608346,13.4803453 C169.797172,13.4803453 169.7686,13.5047702 169.767759,15.3883075 L168.758881,32.7445304 C168.758881,34.0520011 168.982486,35.042384 169.461611,35.6230221 C169.909292,36.1655537 170.740022,36.4797129 171.608346,36.4797129 C173.329371,36.4797129 174.468439,36.2094641 175.094317,35.4984194 C175.396304,35.1553396 175.638864,34.654569 175.662022,34.2574453 C175.750952,33.3266646 175.778033,32.67154 175.745987,32.3105253 C175.404017,28.4580716 174.809486,22.7558154 173.960996,15.1091522 C174.030921,14.2429443 173.897423,13.8500232 173.603821,13.6789404 C173.322501,13.5150143 172.936923,13.477589 171.828352,13.4800279 C171.719788,13.4802656 171.719788,13.4802656 171.608346,13.4803453 Z" id="Rectangle" stroke="#0091FF" fill="#0091FF" transform="translate(172.258881, 24.979713) rotate(41.000000) translate(-172.258881, -24.979713) "></path>
                <circle id="Oval" stroke="#FFFFFF" fill="#FFFFFF" transform="translate(167.988915, 29.411763) rotate(39.000000) translate(-167.988915, -29.411763) " cx="167.988915" cy="29.4117631" r="1"></circle>
                <rect id="Rectangle" stroke="#0091FF" fill="#0091FF" transform="translate(179.496066, 16.042534) rotate(129.000000) translate(-179.496066, -16.042534) " x="176.996066" y="15.0425343" width="5" height="2"></rect>
                <rect id="Rectangle" stroke="#0091FF" fill="#D8D8D8" transform="translate(177.499610, 19.823324) rotate(138.000000) translate(-177.499610, -19.823324) " x="176.99961" y="5.82332429" width="1" height="28" rx="0.5"></rect>
                <path d="M167.49961,7.32332429 C168.166277,7.32332429 168.49961,8.32332429 168.49961,10.3233243 L166.49961,10.3233243 C166.49961,8.32332429 166.832943,7.32332429 167.49961,7.32332429 Z" id="Triangle" stroke="#0091FF" fill="#0091FF" stroke-linejoin="round" transform="translate(167.499610, 8.823324) scale(-1, -1) rotate(138.000000) translate(-167.499610, -8.823324) "></path>
                <path d="M184.680516,19.8233243 C184.631746,19.8233243 184.582986,19.8247514 184.534299,19.8276039 C183.15595,19.9083575 182.104042,21.0911933 182.184796,22.4695416 L182.891302,34.5285861 C182.966791,35.8170842 184.033709,36.8233243 185.324417,36.8233243 C186.627009,36.8233243 187.710377,35.8212217 187.81174,34.5225794 L188.748745,22.5178654 C188.753797,22.4531414 188.756326,22.3882452 188.756326,22.3233243 C188.756326,20.9426124 187.637038,19.8233243 186.256326,19.8233243 L184.680516,19.8233243 Z" id="Rectangle" stroke="#0091FF" fill="#0091FF" transform="translate(185.499610, 28.323324) rotate(138.000000) translate(-185.499610, -28.323324) "></path>
                <path d="M17.590764,13.0179153 C17.5545257,13.7180021 17.590764,13.9269511 16.9845172,15.0836498 C16.344354,16.3050597 15.3893912,16.8274694 14.1196289,16.6508789 C14.869775,19.3175605 16.02682,21.3828847 17.590764,22.8468514 C19.2988223,24.4457198 21.2282031,25.6014243 23.3789063,26.3139648 C23.7221622,24.9067292 23.9960484,24.038443 24.2005648,23.7091062 C24.4807516,23.2579157 25.3848457,22.8468514 25.3848457,22.8468514 C25.3848457,22.8468514 26.4788757,22.2085497 27.1731446,22.2085497 C28.7514603,22.2085497 34.2462297,25.867714 33.4972843,28.6171918 C33.3745552,29.0677466 33.0415483,29.9230101 32.9401542,30.2028718 C32.6989444,30.8686442 32.0922722,31.390119 31.2359466,31.9172607 C30.2555929,32.5207524 29.1113973,33.0990814 25.3848457,33.0990814 C23.6368832,33.0990814 20.3829441,32.3018629 16.9845172,30.2028718 C15.9241952,29.5479787 14.3798769,28.2516763 12.3515625,26.3139648 L9.967619,22.8468514 L8.30664062,19.1791992 C7.44131589,17.0360567 6.96264792,15.4756524 6.87063669,14.4979864 C6.72788022,12.9811265 7.18234578,11.1207469 7.51044004,10.2970135 C7.85866152,9.49380195 7.81928758,9.06031765 8.30664062,8.49429708 C8.49641771,8.27388657 10.079927,6.00420327 12.3515625,7 C13.3969249,7.45824627 14.8514388,8.54128585 15.833005,9.82365408 C16.9900975,11.3353388 17.5929291,12.9760873 17.590764,13.0179153 Z" id="Path-2" fill="#0091FF"></path>
                <g id="Path_1" transform="translate(160.000000, 121.000000)" fill-rule="nonzero">
                    <path d="M36.7999987,39.8974359 L3.20000008,39.8974359 C2.37264623,39.8974359 1.59481029,39.5752454 1.0097846,38.9902156 C0.424753825,38.4051889 0.102564103,37.6273538 0.102564103,36.7999987 L0.102564103,3.20000008 C0.102564103,2.37264623 0.424753825,1.59481029 1.0097846,1.0097846 C1.59481029,0.424753825 2.37264623,0.102564103 3.20000008,0.102564103 L36.7999987,0.102564103 C37.6273538,0.102564103 38.4051889,0.424753825 38.9902219,1.0097846 C39.5752454,1.59481029 39.8974359,2.37264623 39.8974359,3.20000008 L39.8974359,36.7999987 C39.8974359,37.6273538 39.5752454,38.4051889 38.9902219,38.9902156 C38.4051889,39.5752454 37.6273538,39.8974359 36.7999987,39.8974359 Z" id="Path" stroke="#0091FF" stroke-width="2"></path>
                    <path d="M3.20000125,0.205128205 C2.40004006,0.205128205 1.64795861,0.516651643 1.08230669,1.08230669 C0.516651643,1.64795861 0.205128205,2.40004006 0.205128205,3.20000125 L0.205128205,36.7999987 C0.205128205,37.5999599 0.516651643,38.3520351 1.08230669,38.9176933 C1.64796487,39.4833484 2.40004006,39.7948718 3.20000125,39.7948718 L36.7999987,39.7948718 C37.5999599,39.7948718 38.3520351,39.4833484 38.9176933,38.9176933 C39.4833484,38.3520351 39.7948718,37.5999599 39.7948718,36.7999987 L39.7948718,3.20000125 C39.7948718,2.40004006 39.4833484,1.64796487 38.9176933,1.08230669 C38.3520351,0.516651643 37.5999599,0.205128205 36.7999987,0.205128205 L3.20000125,0.205128205 L3.20000125,0.205128205 Z M3.20000125,0 L36.7999987,0 C38.5673077,0 40,1.43268605 40,3.20000125 L40,36.7999987 C40,38.5673077 38.5673077,40 36.7999987,40 L3.20000125,40 C1.43268605,40 0,38.5673077 0,36.7999987 L0,3.20000125 C0,1.43268605 1.43268605,0 3.20000125,0 Z" id="Shape"></path>
                </g>
                <rect id="Rectangle" stroke="#0091FF" fill="#0091FF" x="166.5" y="134.5" width="27" height="14" rx="2"></rect>
                <path d="M176.85027,132.166074 C176.703246,132.166074 176.563674,132.230782 176.468672,132.34299 L174.775347,134.34299 C174.698898,134.433284 174.656944,134.547763 174.656944,134.666074 C174.656944,134.942216 174.880802,135.166074 175.156944,135.166074 L184.715005,135.166074 C184.834735,135.166074 184.95049,135.12311 185.041226,135.044994 C185.250497,134.864828 185.274092,134.549126 185.093925,134.339854 L183.372084,132.339854 C183.2771,132.229525 183.138746,132.166074 182.993164,132.166074 L176.85027,132.166074 Z" id="Rectangle" stroke="#0091FF" fill="#0091FF"></path>
                <circle id="Oval" stroke="#0091FF" fill="#FFFFFF" cx="180" cy="141" r="5.5"></circle>
                <circle id="Oval" stroke="#0091FF" fill="#0091FF" cx="180" cy="141" r="3.5"></circle>
                <path d="M36.7999987,160.897436 L3.20000008,160.897436 C2.37264623,160.897436 1.59481029,160.575245 1.0097846,159.990216 C0.424753825,159.405189 0.102564103,158.627354 0.102564103,157.799999 L0.102564103,124.2 C0.102564103,123.372646 0.424753825,122.59481 1.0097846,122.009785 C1.59481029,121.424754 2.37264623,121.102564 3.20000008,121.102564 L36.7999987,121.102564 C37.6273538,121.102564 38.4051889,121.424754 38.9902219,122.009785 C39.5752454,122.59481 39.8974359,123.372646 39.8974359,124.2 L39.8974359,157.799999 C39.8974359,158.627354 39.5752454,159.405189 38.9902219,159.990216 C38.4051889,160.575245 37.6273538,160.897436 36.7999987,160.897436 Z" id="Path" stroke="#0091FF" stroke-width="2" fill-rule="nonzero"></path>
                <path d="M3.20000125,121.205128 C2.40004006,121.205128 1.64795861,121.516652 1.08230669,122.082307 C0.516651643,122.647959 0.205128205,123.40004 0.205128205,124.200001 L0.205128205,157.799999 C0.205128205,158.59996 0.516651643,159.352035 1.08230669,159.917693 C1.64796487,160.483348 2.40004006,160.794872 3.20000125,160.794872 L36.7999987,160.794872 C37.5999599,160.794872 38.3520351,160.483348 38.9176933,159.917693 C39.4833484,159.352035 39.7948718,158.59996 39.7948718,157.799999 L39.7948718,124.200001 C39.7948718,123.40004 39.4833484,122.647965 38.9176933,122.082307 C38.3520351,121.516652 37.5999599,121.205128 36.7999987,121.205128 L3.20000125,121.205128 L3.20000125,121.205128 Z M3.20000125,121 L36.7999987,121 C38.5673077,121 40,122.432686 40,124.200001 L40,157.799999 C40,159.567308 38.5673077,161 36.7999987,161 L3.20000125,161 C1.43268605,161 0,159.567308 0,157.799999 L0,124.200001 C0,122.432686 1.43268605,121 3.20000125,121 Z" id="Shape" stroke="#0091FF" fill="#FFFFFF" fill-rule="nonzero"></path>
                <path d="M20.5363846,139.663842 C24.5382398,136.112053 26.94331,136.112053 30.971655,139.663842 C33.4457295,141.845231 34.7801837,144.941119 34.9750178,148.951505 L34.9749875,148.951507 C35.0017864,149.503124 34.5763369,149.972023 34.0247195,149.998822 C34.0085569,149.999607 33.9923775,150 33.9761958,150 L19.0068863,150.000012 C17.9023103,150.000012 17.0068745,149.104576 17.0068745,148 C17.0068745,147.980078 17.0071721,147.960157 17.0077674,147.940244 C17.1130797,144.417023 18.2892855,141.658222 20.5363846,139.663842 Z" id="Rectangle" fill="#0091FF"></path>
                <ellipse id="Oval" stroke="#FFFFFF" fill="#0091FF" cx="25.5" cy="133.5" rx="4.5" ry="5.5"></ellipse>
                <path d="M8.25542078,145.22015 C5.86900636,147.119241 4.62297103,149.737395 4.50864249,153.114319 C4.50792675,153.139691 4.50792675,153.139691 4.50778358,153.165073 C4.50778358,153.99349 5.17934806,154.665054 6.00776541,154.665054 L21.9564388,154.665073 C22.018464,154.665073 22.0804296,154.661226 22.1419785,154.653554 C22.9640434,154.551083 23.5473899,153.801599 23.4449196,152.979534 C23.032756,149.672977 21.644342,147.09639 19.2722983,145.221149 C14.9615089,141.813214 12.5366089,141.813214 8.25542078,145.22015 Z" id="Rectangle" stroke="#FFFFFF" fill="#0091FF"></path>
                <ellipse id="Oval" stroke="#FFFFFF" fill="#0091FF" cx="13.575137" cy="139.5" rx="4.5" ry="5.5"></ellipse>
            </g>
        </g>
    </g>
</svg>